<?xml version="1.0" encoding="UTF-8"?>
<svg id="Layer_1" xmlns="http://www.w3.org/2000/svg" version="1.1" xmlns:xlink="http://www.w3.org/1999/xlink" viewBox="0 0 2000 2000">
  <defs>
    <style>
      .st0 {
        fill: url(#linear-gradient2);
      }

      .st1 {
        fill: #693ef2;
      }

      .st2 {
        fill: url(#linear-gradient1);
      }

      .st3 {
        fill: #070535;
      }

      .st4 {
        fill: #3a7de5;
      }

      .st5 {
        fill: #3236a6;
      }

      .st6 {
        fill: url(#linear-gradient4);
      }

      .st7 {
        fill: url(#linear-gradient3);
      }

      .st8 {
        fill: #535cef;
      }

      .st9 {
        fill: url(#linear-gradient);
      }
    </style>
    <linearGradient id="linear-gradient" x1="346.55" y1="1917.11" x2="435.71" y2="2264.7" gradientTransform="translate(309 -1052)" gradientUnits="userSpaceOnUse">
      <stop offset="0" stop-color="#3683e5"/>
      <stop offset="1" stop-color="#6e3af5"/>
    </linearGradient>
    <linearGradient id="linear-gradient1" x1="41.84" y1="1998.24" x2="128.36" y2="2272.4" gradientTransform="translate(309 -1052)" gradientUnits="userSpaceOnUse">
      <stop offset="0" stop-color="#2f8ee4"/>
      <stop offset="1" stop-color="#6944f6"/>
    </linearGradient>
    <linearGradient id="linear-gradient2" x1="1082.47" y1="1913.1" x2="1176.25" y2="2255.25" gradientTransform="translate(309 -1052)" gradientUnits="userSpaceOnUse">
      <stop offset="0" stop-color="#4278ee"/>
      <stop offset="1" stop-color="#7231f2"/>
    </linearGradient>
    <linearGradient id="linear-gradient3" x1="1320.5" y1="1998.18" x2="1373.01" y2="2253.83" gradientTransform="translate(309 -1052)" gradientUnits="userSpaceOnUse">
      <stop offset="0" stop-color="#4872ed"/>
      <stop offset="1" stop-color="#7133f1"/>
    </linearGradient>
    <linearGradient id="linear-gradient4" x1="644.29" y1="1913.68" x2="725.64" y2="2265.28" gradientTransform="translate(309 -1052)" gradientUnits="userSpaceOnUse">
      <stop offset="0" stop-color="#4577e9"/>
      <stop offset="1" stop-color="#7433f3"/>
    </linearGradient>
  </defs>
  <g>
    <g>
      <path class="st9" d="M819.16,1198.78c-1.29,3.18.45,5.14-5.07,6.14-6.59,1.19-44.39,1.15-50.95-.08-8.69-1.63-6.23-7.34-7.25-13.19-.46-2.63,1.44-3.61-3-3.09-8.78,2.87-16.33,8.56-24.93,11.8-6.88,2.59-16.58,2.83-21.63,4.95-3.02,1.27-2.82,5.21-4.83,5.75-5.98,1.62-55.76-3.49-63.29-5.48-41.62-10.97-81.43-54.55-91.28-96.5-24.59-104.78,64.7-201.91,171.36-169.32,13.58,4.15,25.29,12.03,37.65,18.42v-121.32c6.58-7.81,56.97-6.58,61.94-3.21,2.01.95.89,3.23,1.27,4.23v360.89ZM739.64,1121.3c.63-.71,1.45-1.29,2.04-2.04,67.1-85.32-78.61-175.96-128.1-80.18-42.87,82.96,68.28,147.01,126.06,82.22Z"/>
      <path class="st1" d="M819.16,1198.78v-112.14c3.38,2.12,2.04,7.74,2.07,11.18.3,28.95,2.6,66.08.11,94.06-.36,4.04-1.08,4.16-2.19,6.9Z"/>
      <path class="st8" d="M739.64,1121.3l2.04-2.04c-.59.75-1.41,1.33-2.04,2.04Z"/>
    </g>
    <g>
      <path class="st2" d="M511.28,1092.75l-126.41,2.04c-26.53-.61-45.63,2.76-40.59-33.47,1.81-12.99,15.74-29.74,29.38-29.74h78.5c.89-3.56-1.47-4.08-3.05-6.13-23.15-30.21-62.49-33.54-94.2-14.65-56.66,33.75-42.53,127.54,26.83,133,39.97,3.15,84.71-3.5,124.53-.16,9.65.81,12.09,1.02,13.17,11.26.74,7.05,1,41.39-1.05,45.96-.81,1.81-3.31,3.11-5.07,4.03-46.64-2.4-96.46,3.22-142.72,0-120.96-8.43-151.95-173-58.95-241.43,81.15-59.71,201.61-16.75,209.8,87.52,1.08,13.76,4.62,36.59-10.17,41.77Z"/>
      <path class="st8" d="M511.28,1092.75c-16.98,5.95-102.37,2.59-126.41,2.04l126.41-2.04Z"/>
    </g>
  </g>
  <g>
    <g>
      <path class="st0" d="M1371.7,864.39c6.93-5.55,46.37-.03,57.73-2.11,1.35.41,3.44,4.61,3.44,5.17v78.5h82.58c2.84,2.52,4.38,5.55,4.97,9.3,1.14,7.22,1.39,37.89.13,44.73-1.27,6.92-7.22,5.93-12.24,7.13h-75.45c-.02,11.52.06,23.13.01,34.66-.01,3.4.01,6.8,0,10.19v6.12c-.04,18.08-2.91,64.03,4.34,78.24,1.62,3.18,5.27,6.64,8.97,7.34,13.63,2.58,62.72-3.43,70.31,1.05,5.95,3.51,5.67,51.56,1.87,56.96-2.2,3.12-3.44,2.93-6.87,3.32-18.25,2.09-77.65,2.12-95.02-1.04-19.19-3.49-46.8-28.87-46.8-49.03v-147.82h-29.56c-2.02-1.28-2.64-2.81-3.06-5.1-1.45-7.9-1.12-40.36-.1-49.04.35-2.97.25-5.24,3.16-7.03h29.56v-79.52l2.04-2.04Z"/>
      <path class="st8" d="M1508.31,1007.12c-23.2,5.6-49.45.09-73.41,2.03l-2.03,32.63c.05-11.53-.03-23.14-.01-34.67h75.45Z"/>
      <g>
        <path class="st7" d="M1606.18,947.99c47.41-3.51,98.95,2.62,146.8,0l5.17,1.91c1.43,2.33,1.82,46.85.91,52.14-.62,3.61-1.52,3.49-4.04,5.08l-101.95,2.04c-11.3,0-35.95-3.98-43.94,1.94-8.06,5.97-6.91,23.73,2.04,28.75,9.82,5.51,74.39.48,91.93,1.86,87.29,6.88,103.37,146.81,7.06,163.19h-148.84c-4.43-1.64-6.97-1.21-8.11-7.19-.94-4.96-.65-49.93.84-52.07,11.28-3.62,25.53-1.74,37.85-1.91,32.66-.46,71.61,3,103.2.15,4.09-.37,4.27-1.19,6.9-2.19,18.44-6.95,16.59-34.81-5-36.79-50.28-4.61-111.47,16.79-143.28-36.14-26.48-44.06-1.41-116.77,52.46-120.76Z"/>
        <path class="st8" d="M1752.98,947.99c-47.85,2.62-99.39-3.51-146.8,0h146.8Z"/>
      </g>
      <path class="st5" d="M1432.87,1058.09v-6.12c0,1.63,0,4.45,0,6.12Z"/>
      <path class="st8" d="M1369.66,866.43l2.04-2.04-2.04,2.04Z"/>
    </g>
    <g>
      <path class="st6" d="M1051.59,835.85c5.74-5.07,50.36-.63,60.88-1.75,3.72,2.33,2.23,33.94,2.33,40.49l-2.03,3.04,2.03,1.04c.09,7.45-.04,14.97,0,22.43.22,38.02-.16,76.15,0,114.18-3.05,8.07-10.1,16.8-13.79,25.97-14.36,35.72-10.93,70.46,4.17,104.96,1.49,3.41,9.61,13.7,9.61,14.85v41.8c-2-.66-4.42,2.04-5.1,2.04h-55.05c-3.64,0-6.41-10.68-5.1-14.28-14.64,3.6-27.51,12.43-42.39,15.72-99.56,22.01-183.44-61.1-164.65-160.57,18.34-97.07,123.59-135.99,207.05-89.61l2.04-120.3ZM963.43,999.49c-93.16,13.49-73.47,171.58,29.13,147.39,93.1-21.95,69.48-161.67-29.13-147.39Z"/>
      <path class="st1" d="M1316.65,1041.78c26.94,41.78,17.85,103.1-26.67,129.31-10.51,6.18-20.49,7.68-30.22,12.6-14.73,7.46-17.7,15.57-37.85,17.2-81.62,6.6-133.22-76.99-109.15-150.95l24.47,4.08c-14.5,43.2,2.82,98.54,44.78,119.35,2.59,1.28,7.71,4.74,10.26,1.97-25.09-22.3-44.18-47.53-44.85-82.59,15.34,4.3,21.58-2.26,34.66-8.16-4.25,29.87,18.14,70.22,48.82,76.58,60.47,12.54,106.78-49.49,75.56-103.08,4.08-5.42,8.67-9.26,10.19-16.31Z"/>
      <path class="st4" d="M1286.07,788.95c-3.9,5.96-11.52,8.51-18.35,8.16-6.16-11.1-23.78-4.39-34.65-6.11-.45.43,1.44,10.71,2.03,12.22-3.2,5.32-10.38,7.94-16.31,8.16-48.7-121.43-179.71-115.91-234.48-4.08l-18.35-4.08c36.71-74.31,86.39-105.96,170.17-108.15,71.3-1.86,121.73,28.91,149.94,93.87ZM1172.91,717.59v2.04c1.32-.68,1.32-1.36,0-2.04ZM1217.76,770.6h30.58c.23,0,4.07-2.96,2.06-4.04-5.46-15.6-54.69-46.11-71.37-46.98-3.21-.17-3.5-.35-3.06,3.08,17.98,12.14,29.29,30.77,41.78,47.94Z"/>
      <path class="st8" d="M1316.65,1041.78c-1.52,7.05-6.11,10.89-10.19,16.31-29.75-51.07-115.79-33.79-124.37,26.51-13.08,5.89-19.32,12.45-34.66,8.16-.84-44.32,29.11-87.58,74.96-92.22,6.78-11.48,7.49-23.67,9.5-36.39.39-2.48,3.22-6.02,3.22-6.98v-30.58l3.06-3.06h67.28c2.91,1.79,2.81,4.07,3.16,7.03,3.33,28.41-1.48,63.73-6.3,91.89,6.66,6.46,9.7,12.12,14.35,19.34ZM1288.12,945.94l-24.46.03-6.1,52.92,23.34,8.29c4,.15,8.92-55.56,7.23-61.24Z"/>
      <path class="st8" d="M1286.07,788.95c16.59,38.21,23.89,78.43,22.43,120.3h-71.36c-2.65-32.84-6-67.08-18.35-97.87,5.93-.21,13.11-2.84,16.31-8.16.11.28,2.71,1.36,3.56,3.5,5.86,14.69,9.5,29.7,14.72,44.59l28.62-1.2c2.63-2.67-11.06-47.22-14.28-53.01,6.83.36,14.45-2.2,18.35-8.16Z"/>
      <path class="st8" d="M1112.76,1049.94c14.14-43.44,58.16-77.8,103.99-79.52,2.45,25.41-11.38,20.74-28.04,27.96-5.57,2.41-22.08,13.02-27.09,17.85-6.9,6.65-21.43,28.99-24.39,37.8l-24.47-4.08Z"/>
      <path class="st8" d="M1018.98,856.24l-13.13,69.44c-2.68,3.94-27.66-1.56-33.9-1.01-7.14-4.98,5.84-55.77,6.33-66.3l40.7-2.13Z"/>
      <path class="st8" d="M984.31,807.31c-7.75,15.83-17.08,46.04-21.04,63.58s-6.3,35.99-7.79,54.39l-20.09,4.36c-.69-45.34,10.75-86.28,30.57-126.41l18.35,4.08Z"/>
      <path class="st3" d="M1051.59,835.85l-2.04,120.3"/>
      <path class="st8" d="M1114.8,878.67l-2.03-1.04,2.03-3.04c.02,1.36-.02,2.72,0,4.08Z"/>
      <path class="st3" d="M1172.91,717.59c1.32.68,1.32,1.36,0,2.04v-2.04Z"/>
      <path class="st8" d="M1033.23,1051.96c-1.17,1.16-19.51-10.87-23.9-11.76-59.31-12.13-89.87,55.29-45.42,93.31-38.64-7.98-58.08-50.97-40.54-86.39,23.11-46.67,91.43-43.44,109.85,4.85Z"/>
      <path class="st8" d="M1034.26,1054.01c1.32.68,1.32,1.36,0,2.04v-2.04Z"/>
      <path class="st8" d="M1298.3,1080.52c-29.17,12.78-59.43,19.48-90.23,27.1-3.46.86-6.57.71-5.6,5.52-.1-.32-2.74-.97-3-2.12-16.44-70.3,77.29-97.92,98.83-30.5Z"/>
      <path class="st1" d="M1298.3,1080.52c19.89,62.26-67.55,92.94-94.29,42.24-1.96-3.71-.78-7.18-1.54-9.62-.97-4.81,2.14-4.66,5.6-5.52,30.8-7.63,61.06-14.33,90.23-27.1Z"/>
    </g>
  </g>
</svg>